<?xml version="1.0" encoding="utf-8"?>
<!-- Generator: Adobe Illustrator 19.0.0, SVG Export Plug-In . SVG Version: 6.00 Build 0)  -->
<svg version="1.1" id="Layer_1" xmlns="http://www.w3.org/2000/svg" xmlns:xlink="http://www.w3.org/1999/xlink" x="0px" y="0px"
	 viewBox="0 0 619 412" style="enable-background:new 0 0 619 412;" xml:space="preserve">
<g>
	<g>
		<path d="M540.9,211.7c-0.8,0-1.5-0.1-2.3-0.1c-0.8,1.4-2.3,2.7-2.4,4.1c-0.1,8.6,0,17.2,0.4,25.8c0,1.1,2.2,2.1,3.4,3.1
			c1-1.6,2.9-3.3,2.9-4.9c0.2-6.9-0.1-13.8-0.5-20.6C542.3,216.5,541.5,214.1,540.9,211.7z"/>
		<path d="M522.4,257.9c1.1,0.8,4.4,0.3,5-0.7c1.2-1.8,1.8-4.5,1.4-6.6c-1-5.6-2.6-11-4-16.5c0.2-0.2,0.5-0.3,0.7-0.5
			c0-5.7,0.2-11.3-0.1-17c-0.1-1.7-2-3.4-3.1-5c-1.6,1.3-3.6,2.4-4.8,4c-0.7,1,0.2,2.9,0,4.3c-1.5,10.8,7,21.2,1.1,32.3
			C518.1,253.3,520.6,256.6,522.4,257.9z"/>
		<path d="M615.8,166.9c-1.4-2.7-4-4.4-7-4.8c-0.4,0-1-0.2-1.6-0.3c-1.4-0.3-3.2-0.6-5.2-0.6c-1.5,0-2.9,0.2-4.3,0.6
			c-5,1.5-9.8,3.4-14.5,5.1c-2.1,0.8-4.2,1.6-6.2,2.3c-16.1,5.9-29.2,8.6-41.4,8.6c-4.9,0-9.7-0.5-14.4-1.3
			c-6.7-1.3-11.4-5.4-12-10.4c-1-9.5-0.4-19.4,0.2-29.8c0.3-4.3,0.5-8.8,0.7-13.2c0.1-1.7,0.2-3.4,0.3-5.3c0.1-0.8,0.1-1.6,0.2-2.4
			c0-0.3,0-0.5,0-0.8c0-4.9-4-8.9-8.9-9c0,0-0.1,0-0.1,0c-0.1,0-0.2,0-0.3,0c-0.6,0-1.2,0.1-1.8,0.2c-0.6,0.1-1.3,0.2-2,0.3
			c-2.3,0.4-5.2,0.8-8.1,2.2c-19.2,9.1-35.9,13.3-52.5,13.3c-2.3,0-4.6-0.1-6.9-0.3c-8.7-0.6-16.3-4.3-23.2-11.1
			c-8.1-8.1-11.9-17.8-11.3-28.7c0.6-10.1,1.6-20.3,2.8-31.1c0.5-5,1.1-10.1,1.6-15.4c0.3-3.6-1.5-7.1-4.7-8.8
			c-1.3-0.7-2.8-1.1-4.3-1.1c-2,0-4,0.7-5.7,2c-0.9,0.7-1.7,1.4-2.4,1.9c-1.4,1.1-2.5,2-3.6,2.9c-3.1,2.6-6.1,5.4-9,8
			c-6.2,5.8-12.1,11.2-18.6,15c-7.6,4.4-13.9,6.4-19.7,6.4c-3.7,0-7.3-0.8-10.8-2.6c-10-4.9-18-12.8-26.5-26.5
			c-3.2-5.2-6-10.7-8.9-16.6c-1.3-2.7-2.7-5.5-4.2-8.2c-1.1-2.1-3-3.7-5.3-4.4c-0.9-0.3-1.8-0.4-2.7-0.4c-1.4,0-2.9,0.3-4.2,1
			c-11.5,6-10.1,16.2-9.4,21.1c2.9,21.1,0.8,37.6-6.5,52c-4,7.9-6.5,7.9-7.4,7.9c-1.4,0-4.1-0.6-9-3.4c-3.6-2.1-7.2-4-10.7-5.8
			c-1.6-0.8-3.1-1.6-4.7-2.5c-1.3-0.7-2.8-1.1-4.3-1.1c-0.4,0-0.8,0-1.2,0.1l-2.5,0.3c-2.6,0.3-4.8,1.8-6.3,3.9
			c-1.4,2.1-1.9,4.8-1.3,7.3c2.8,10.8,2.8,19.5,0.2,25.9c-1.7,4.1-4.6,7.6-8.9,10.4c-1.9-15.4-3.9-31.7-5.7-48.1
			c-0.3-2.9-1-7.1-3.4-10.7c-2.9-4.3-7.6-6.7-13.1-6.7c-0.7,0-1.5,0-2.3,0.1c-11.3,1.2-23.1,2.8-35.1,4.8
			c-5.4,0.9-11.5,2.3-14.9,7.5c-3.4,5.3-2.2,11.4-0.6,17.2c3.7,13.6,6.7,25,9.4,35.8c2.6,10.2,5.1,20.6,7.6,30.7
			c2.1,8.6,4.3,17.5,6.5,26.2c0.9,3.6,1.8,7.2,2.8,10.6c0.2,0.6,0.3,1.2,0.5,1.8c-1.5-1.6-3.1-3.1-4.6-4.7
			c-9.2-9.3-18.7-19-28.1-28.5c-1.6-1.6-6.3-6.4-12.6-6.4c-4.5,0-10.6,2.2-13.9,12.5c-1.6,4.9-3.2,9.9-4.7,14.7
			c-1.8,5.7-3.6,11.6-5.5,17.4c-7.1-17.9-15.1-38.1-22.6-58.3c-3.7-10-10.2-11.4-13.7-11.4c-3.5,0-7,1.4-10.7,4.3
			c-9,7.1-17.1,13.6-25,20.8c-4.5,4.1-6.5,12.2-4.3,17.8c6,15.1,12.4,30.2,18.7,44.9c1.4,3.3,2.8,6.7,4.2,10
			c4.2,9.9,8.4,19.8,12.6,29.7c5.8,13.6,11.7,27.6,17.5,41.4c2,4.8,4,9.7,6,14.5c2.3,5.6,4.7,11.4,7.1,17.1
			c4.6,10.7,12.3,12.3,16.5,12.3c2.6,0,5.3-0.6,8.1-1.7c4.1-1.6,8.4-2.9,12.9-4.3c1.8-0.5,3.6-1.1,5.5-1.7c4.6-1.4,8.1-4,10.5-7.6
			c0.2,0.7,0.3,1.4,0.5,2c0.2,0.7,0.3,1.4,0.5,2.1c0.5,2.6,2.2,4.9,4.6,6.2c1.3,0.7,2.8,1,4.2,1c1.2,0,2.4-0.2,3.5-0.7
			c0.4-0.2,1.1-0.4,1.8-0.6c2.4-0.8,5.7-1.8,8.4-4.5c5.1-5,8.5-7.3,10.8-7.3c2.1,0,5.6,1.7,10.7,5.3c6.2,4.3,8.5,8.7,8,15.2
			c-0.2,3,0.3,5.7,0.7,8c0.2,0.9,0.3,1.7,0.4,2.4c0.4,2.7,1.9,5,4.2,6.5c1.4,0.9,3.1,1.3,4.7,1.3c1,0,2-0.2,3-0.5
			c0.5-0.2,0.9-0.3,1.3-0.4c1.1-0.3,2.7-0.8,4.3-2c1.6-1.2,3-2.5,4.2-3.9c13.8-16.3,31.6-26.2,54.4-30c2.3-0.4,4.5-0.6,6.5-0.6
			c8.5,0,15.1,3.2,20.7,10.2c5.9,7.4,9.1,16.4,9.4,27c0.2,6.3,0,12.6-0.2,19.2c-0.1,4.1-0.2,8.3-0.3,12.5c0,2.7,0.4,5.1,0.7,7.3
			c0.1,0.9,0.3,1.7,0.3,2.4c0.3,2.8,2,5.3,4.5,6.8c1.4,0.8,2.9,1.2,4.5,1.2c1.2,0,2.5-0.3,3.6-0.8c4.8-2.1,7.1-4.7,8.6-7
			c7.4-10.6,16.7-22.6,29.8-30.7c5.2-3.2,11.2-5,17.3-5c6.6,0,12.9,2,18.4,5.7c11.1,7.5,20.4,17.5,28.5,30.8
			c2.3,3.7,5.8,5.7,8.4,7.1c0.8,0.4,1.5,0.8,2,1.2c1.5,1.1,3.3,1.6,5.1,1.6c1,0,2-0.2,2.9-0.5c2.7-0.9,4.8-3.1,5.7-5.8
			c0.2-0.5,0.5-1.3,0.8-2c1-2.4,2.4-5.7,2.2-9.6c-0.7-17.2,0.9-30.9,4.8-43.2c5.9-18.1,16.7-27.3,32.2-27.3c2.1,0,4.2,0.2,6.4,0.5
			c16.7,2.3,33.8,7.5,52.1,15.7c2.5,1.1,4.8,1.5,7.3,1.9c1.1,0.2,2.4,0.4,3.9,0.7c0.6,0.1,1.2,0.2,1.8,0.2c2.9,0,5.6-1.4,7.3-3.8
			c2.1-2.9,2.2-6.8,0.4-9.8c-1-1.8-1.9-3.3-2.7-4.6c-1.6-2.6-2.8-4.7-4.1-6.8c-1.1-1.8-2.3-3.6-3.4-5.3c-2.1-3.2-4.1-6.2-5.6-9.3
			c-2.6-5.2-3.3-10-2.1-13.8c1.1-3.3,3.8-6,8.1-8c9.4-4.5,20.2-6.8,32.4-9.2c6.4-1.2,13.6-2.6,16.3-9.2c2.7-6.6-1.4-12.8-4.5-17.3
			c-7.1-10.6-15.7-30.8,6.7-47.1c2.7-2,5.7-3.7,8.9-5.6c3.3-1.9,6.6-3.9,9.9-6.2c3.5-2.5,4.9-5.9,6-8.5c0.3-0.6,0.5-1.3,0.7-1.6
			C617.2,172.7,617.2,169.5,615.8,166.9z M155.8,305c-13.7,5.5-13.5,5.6-16.9-8.7c-0.3-1.3-0.7-2.6-1-4c-0.8-2.6-1.6-5.2-2.6-7.8
			c-0.5-1.3-1-2.6-1.5-3.8c-1-2.4-2.7-5.9-4.7-6.3c-4.9-1.1-7.2-3.4-8.2-6.3c-0.1-0.2-0.1-0.4-0.2-0.6c-0.2-0.6-0.3-1.2-0.4-1.9
			c0-0.2-0.1-0.4-0.1-0.6c-0.3-2.6,0-5.4,0-8.2c0-0.7,0-1.5,0-2.2c0.1,0,0.1,0,0.2,0h0c0-4-0.3-8,0.1-11.9c0.2-1.6,1.7-4,3-4.3
			c1.3-0.3,4,1,4.7,2.4c10.3,18.9,20.4,37.9,30.5,56.9C160.8,301.4,159.7,303.4,155.8,305z M562.8,240.7c0.3,0.9,0.7,1.7,1.1,2.6
			c0.4,0.9,0.7,1.8,1,2.5c0.4,1.2,0.6,2.2,0.6,3.1c0,1.5-0.5,2.7-1.6,3.6c-0.9,0.8-2.1,1.4-3.7,1.9c-0.4,0.1-0.8,0.3-1.3,0.4
			c-0.4,0.1-0.9,0.2-1.4,0.4c-0.9,0.2-1.7,0.4-2.5,0.6c-0.8,0.2-1.7,0.4-2.5,0.6c-1.7,0.4-3.3,0.9-5,1.4c-3.3,1-6.5,2.2-9.6,3.6
			c-6.2,2.8-12,6.5-17,11.9c-6.2,6.6-6.9,13.9-6.4,21.4c0.2,2.3,0.5,4.6,0.7,6.9c0.1,0.7,0.2,1.3,0.3,2c1.5,11.5,1,11.7-10.5,8.7
			c-17.2-4.4-34.3-10.7-52.5-4.4c-7.8,2.7-14.2,7-19.1,12.6c-3.8,4.4-6.7,9.6-8.8,15.4c-3.8,10.9-5.3,22.6-8,33.9
			c-0.2,0.9-0.6,1.8-0.9,2.7c-0.1,0.3-0.3,0.6-0.4,0.9c-0.5,1.2-1.2,2.3-1.7,3.5c-0.9-0.5-1.9-0.8-2.9-1.2c-1.7-0.6-3.3-1.3-4.3-2.5
			c-1.3-1.4-2.5-2.8-3.8-4.1c-1.9-2-3.9-4-6-5.8c-0.7-0.6-1.4-1.2-2.1-1.8c-7-5.9-14.9-10.6-24.4-12.8c-19.2-4.3-35,2.8-49.4,14.6
			c-0.8,0.6-1.5,1.3-2.2,2c-0.7,0.7-1.4,1.4-2.2,2c-4.5,3.7-6.9,2.9-8-2.8c-0.6-3.2-1.1-6.3-1.7-9.5c-0.5-3.2-1.1-6.3-1.7-9.5
			c-6.4-32.1-30.9-47.9-62.1-38.4c-9.6,2.9-18.8,7.4-27.9,12.1c-0.8,0.4-1.6,0.9-2.5,1.3c-2.5,1.3-4.9,2.6-7.4,3.9
			c-0.8,0.4-1.6,0.9-2.5,1.3c-7.1,3.7-8.4,3.6-13.5-2.3c-1.1-1.3-2.3-2.5-3.5-3.7c-3.7-3.6-7.8-6.7-12-9.6c-2.3-1.5-3.8-3.3-4.1-5
			c-0.2-1.3,0.4-2.6,2.1-3.6c3.7-2.2,7.6-4.1,11.6-5.8c4-1.7,8.1-3.4,12.1-5.2c0.1,0.3,0.2,0.5,0.3,0.7c0.6,1.5,0.9,1.9,0.9,2.3
			c-0.8,11.5,2,13.3,12.9,9.2c7.2-2.8,11.4-7.4,12.4-15.1c0.2-1.7,0.5-3.4,0.7-5.2c0.8-5.2,1.7-10.3,2.4-15.4
			c0.9-6.1,4-9.8,10.6-10.4c1-0.1,2-0.2,3-0.3c1-0.1,2-0.3,3-0.4c6.1-0.8,12.1-1.9,18.2-2.7c14.4-1.9,26.3,13.3,21.2,26.8
			c-1.4,3.7-3.2,7.3-4,11.1c-1,4.9,1.4,7.5,6.7,7c7-0.6,11.4-4.6,13.8-10.8c9.3-23.6,5-19.4,30.5-18.8c1.3,0,2.5,0.2,3.6,0.4
			c4.5,1,7.7,3.8,9.6,8.1c0.2,0.4,0.3,0.7,0.4,1.1c5,13.6,15.8,13.1,27.6,9.1c3.2-1.1,6.5-2.1,9.9-2.7c0.6-0.1,1.1-0.2,1.7-0.3
			c0.6-0.1,1.1-0.2,1.7-0.2c3.4-0.4,6.9,0.5,10.4,0.7c15.2,0.7,27.9-3.3,35.3-18.1c0.5-1.1,1.5-1.9,2.6-2.7c0.2-0.2,0.4-0.3,0.6-0.5
			c0.4-0.3,0.8-0.6,1.2-1c1.1,2,2.4,4,3.2,6.1c0.1,0.3,0.1,0.6,0.1,0.9c0,0.7-0.2,1.4-0.1,2c0,0.3,0.1,0.5,0.2,0.7
			c2.2,2.5,4.4,6,7.2,6.8c4.2,1.1,6.9-2.1,7.1-6.5c0.1-2.5,0.1-5,0.1-7.4c0-2.5,0-5,0.1-7.4c0.4-8.5,7.8-14.9,16.2-13.3
			c2.1,0.4,4.7,3.3,5.4,5.6c1.4,4.7,1.6,9.8,2.2,14.7c0.6,4.6,2.1,8.8,7.4,8.4c0.7-0.1,1.4-0.1,2.2-0.2c0.4,0,0.7,0,1.1-0.1
			c0.7-0.1,1.4-0.1,2.2-0.2c0.4,0,0.7-0.1,1.1-0.2c0.7-0.1,1.4-0.3,2.1-0.5c1.7-0.5,3.3-1.3,4.6-2.7c0.8-0.8,1.6-1.8,2.2-3.1
			c0.5-0.9,1-1.8,1.6-2.7c0.6-0.9,1.2-1.7,1.9-2.6c1.3-1.6,2.8-3.2,4.4-4.4c1.7-1.3,2.9-2.8,3.5-4.3c0.7-1.9,0.5-3.9-1-5.9
			c-3.7-5.1-1.9-9.2-0.6-14.5c0.3-1.2,0.6-2.4,0.8-3.6c1.7-8.4,2.2-17.2,2.9-25.8c0-0.2,0-0.4-0.1-0.6c0-0.1-0.1-0.2-0.1-0.3
			c-0.1-0.2-0.2-0.4-0.3-0.6c-0.1-0.1-0.1-0.2-0.2-0.3c-0.4-0.5-0.9-1-1.4-1.5c-0.1-0.1-0.2-0.2-0.3-0.3c-0.2-0.2-0.4-0.4-0.6-0.6
			c-0.2-0.2-0.3-0.4-0.5-0.6c-1.5,1.6-3.9,3.1-4.9,4.8c-0.2,0.4-0.4,0.8-0.4,1.2c-1.2,9.3-1.4,18.8-2.3,28.1c-0.1,1.3-0.5,2.6-1,3.9
			c-0.3,1-0.7,1.9-1.1,2.9c-0.1,0.3-0.2,0.6-0.3,1c-0.4-0.4-0.8-0.8-1.2-1.3c-0.7-0.7-1.5-1.4-2.2-2.1c-0.3-0.3-0.5-0.6-0.8-0.8
			c-0.7-0.9-1.3-1.7-1.5-2.7c-0.3-1.6-0.7-3.2-1-4.8c-2.2-11.3-4-22.6-6-34c-0.8-4.7-2.6-8.3-8.6-8.2c-1.6,0-3,0.2-4.3,0.6
			c-0.3,0.1-0.6,0.2-0.9,0.3c-1.7,0.7-2.9,1.8-3.7,3.4c-0.1,0.3-0.2,0.5-0.3,0.8c-0.4,1.2-0.5,2.6-0.5,4.2
			c0.4,8.4,1.1,16.8,1.4,25.3c0,1,0,1.8,0,2.6c-0.1,0.8-0.2,1.5-0.4,2.2c-0.2,0.7-0.4,1.3-0.7,1.8s-0.6,1-1,1.4
			c-1.6,1.6-4.2,2.4-8,2.5c-5.6,0.2-8.3-2.2-8.3-7.9c0-1.9,0-3.8-0.1-5.8c-0.1-3.8-0.2-7.7-0.3-11.5c0-1.9-0.1-3.8-0.1-5.8
			c0-0.7-0.1-1.4-0.1-2c0-0.3-0.1-0.6-0.2-0.9c-0.6-2.6-2-4.4-4.3-5.5c-1-0.5-2.3-0.8-3.7-1.1c-0.7-0.1-1.4-0.3-2.2-0.6
			c-2.2-0.8-4.4-2.2-5.6-4c-12.5-18.7-46-24.4-64.1-2.8c-1.7,2-3.2,4.2-4.7,6.5c-1.9,3-3.7,6.1-5.7,9.1c-0.5,0.7-1,1.5-1.5,2.2
			c-1.1,1.6-2.6,2.8-4.1,4.2c-0.5,0.4-1,0.9-1.4,1.3c-0.4-0.5-0.8-1-1.2-1.4c-1.3-1.4-2.7-2.8-3.3-4.5c-2.1-5.8-3.7-11.8-5.3-17.8
			c-1.4-5.6-4.9-7.6-10.4-7.3c-0.5,0-0.9,0-1.4,0.1c-1.3,0.1-2.5,0.2-3.7,0.3c-1.5,0.2-2.9,0.4-4.1,0.6c-0.9,0.2-1.8,0.5-2.5,0.8
			c-0.5,0.2-1,0.4-1.5,0.7s-0.9,0.5-1.3,0.8c-0.4,0.3-0.8,0.6-1.2,1c-2.9,2.6-4.7,6.8-6.7,13.6c-0.6,1.8-1.1,3.7-1.7,5.5
			c-1.7,5.5-3.6,11-5.6,16.4c-0.1,0.2-0.2,0.5-0.3,0.7c-0.9,1.6-2.7,3.4-4.1,3.5c-1.3,0.1-3.6-2.2-4.4-3.9
			c-4.1-8.3-8.2-16.7-12.2-25c-6.8-13.9-13.5-27.8-20.6-41.6c-0.9-1.7-2.4-3.3-4.2-4.6c-0.9-0.7-1.9-1.2-2.8-1.7
			c-1-0.5-1.9-0.8-2.9-1.1c-2.8-0.7-5.6-1.1-8.5-1.5c-4.8-0.6-9.6-0.8-14.4-1.3c-7.9-0.8-10.3,0.9-11.5,8.9
			c-0.6,4.1-1.1,8.1-1.6,12.2c-1.3,10.1-2.5,20.3-3.9,30.4c-0.3,2-0.6,4.1-0.9,6.1c-0.5,3.3-1.2,6.6-2,9.9c-0.8,3.3-1.7,6.5-2.5,9.8
			c-0.9,0-1.7-0.1-2.6-0.1c-0.9-3.1-2.2-6.2-2.6-9.4c-2.5-20.2-4.8-40.4-7.1-60.6c-0.7-5.9,0.8-8.7,8.2-8.5
			c10.1,0.2,16.5-7.3,21-15.4c1-1.7,1.7-3.6,2.3-5.5c1-3.2,1.6-6.7,2.1-10c0.9-6.4,3.9-8.4,9.6-6.2c18.1,7,30.5-5,35-19.1
			c0.7-2.2,1.3-4.5,1.8-6.8c1.3-5.7,2.3-11.5,3.4-17.3c0.2-1.1,0.5-2.3,0.7-3.4c0.2-0.9,0.5-1.8,0.8-2.7c0.2-0.6,0.5-1.2,0.7-1.8
			c0.4-0.9,0.7-1.8,1.1-2.7c2.3,1.5,4.9,2.8,6.9,4.6c7.9,7.3,14.7,16.4,23.7,21.8c18.2,10.9,36.6,6.7,54.2-3.3
			c1-0.6,2.1-1.1,3.2-1.7c3.2-1.6,6.6-2.9,9.9-4.5c0.6,4.5,1.9,9,1.7,13.4c-0.4,8,0.1,15.9,1.9,23.4c0.2,0.8,0.4,1.7,0.6,2.5
			c1.4,5,3.4,9.8,6.1,14.3c4.3,7.2,10.6,12.4,18,16c0.7,0.3,1.3,0.6,2,0.9c2.7,1.2,5.6,2.2,8.5,3c20.3,5.7,40.3,2.2,60.2-3.2
			c1.7-0.5,3.3-1.2,4.9-1.7c8.4-2.2,11.1,0.3,9.8,9c-0.9,5.8-1.3,11.6-0.8,17.3c0.1,0.8,0.2,1.6,0.3,2.4c0.9,6.4,2.9,12.6,6.6,18.4
			c7.7,12.2,20,17,33.6,17.5c8.8,0.3,17.7-1.7,26.5-2.4c2.8-0.2,5.7,0.2,8.6,0.3c-0.1,0.7-0.1,1.4-0.1,2.1c0,1.8,0,3.7-0.5,5.2
			c-0.1,0.3-0.2,0.6-0.4,0.9C557.5,214.8,557.7,227.6,562.8,240.7z M233.5,225.1c1.2-7.1,2.9-14.1,4.8-21c1.4-4.9,5.1-5.1,7.6-1.4
			c4.6,6.7,8.6,13.8,12.2,21.1c0.3,0.6-0.3,1.9-1.1,3.2c-0.2,0.3-0.5,0.6-0.7,0.9s-0.5,0.6-0.8,0.8c-0.5,0.5-1.1,0.9-1.6,1.1
			c-4.3,1.6-9.2,1.8-14,2.6C234.8,232.8,232.7,229.9,233.5,225.1z M314.5,244.3c1.6-5.6,5.7-14.6,9.1-14.7c6.7-0.3,6.8,8.2,7.7,13.8
			c1,6.3-3.6,7.2-8.5,7.2C318.3,250.7,313,249.8,314.5,244.3z M370.7,230.2c0.2-2.1,0.5-4.1,0.9-6.1c2-10.1,6.2-19.5,12.3-28.2
			c7.8-11.2,23-9.8,29.2,2.4c1.2,2.4,2.1,5,2.9,7.6c1.3,4.4,2.1,9,3.4,13.4c0,3.7-0.4,7.1-1.1,10.3c-0.1,0.5-0.2,1.1-0.4,1.6
			c-3.5,12.9-12.5,21.7-24.7,28.3c-6.1,3.3-12.4,2.7-16.6-3.3c-2.8-3.9-5.6-8.7-6-13.3C370.2,238.6,370.2,234.4,370.7,230.2z"/>
	</g>
	<path d="M524.9,234.1c1.4,5.5,3,10.9,4,16.5c0.4,2.1-0.3,4.8-1.4,6.6c-0.7,1-4,1.4-5,0.7c-1.8-1.3-4.3-4.6-3.7-5.6
		c5.9-11.1-2.7-21.5-1.1-32.3c0.2-1.4-0.6-3.4,0-4.3c1.2-1.6,3.1-2.7,4.8-4c1.1,1.7,3,3.3,3.1,5c0.4,5.6,0.1,11.3,0.1,17
		C525.3,233.8,525.1,234,524.9,234.1z"/>
	<path d="M540.9,211.7c0.5,2.4,1.4,4.9,1.6,7.3c0.4,6.9,0.7,13.8,0.5,20.6c0,1.7-1.9,3.3-2.9,4.9c-1.2-1-3.4-2-3.4-3.1
		c-0.4-8.6-0.5-17.2-0.4-25.8c0-1.4,1.5-2.8,2.4-4.1C539.4,211.6,540.1,211.6,540.9,211.7z"/>
</g>
</svg>
